<svg id="svgexport-3" xmlns="http://www.w3.org/2000/svg" width="122.2" height="26" viewBox="0 0 122.2 26">
  <path id="Path_15" data-name="Path 15" d="M108.262,25.967a.822.822,0,0,1-.59-.236.748.748,0,0,1-.242-.573.74.74,0,0,1,.242-.564.822.822,0,0,1,.59-.236.811.811,0,0,1,.579.236.759.759,0,0,1,.251.564.768.768,0,0,1-.117.407.85.85,0,0,1-.3.291A.8.8,0,0,1,108.262,25.967Z" fill="#111"/>
  <path id="Path_16" data-name="Path 16" d="M113.624,18.369h1.392v5.285a2.417,2.417,0,0,1-.317,1.25,2.1,2.1,0,0,1-.877.8,2.893,2.893,0,0,1-1.305.281,3.039,3.039,0,0,1-1.222-.238,1.961,1.961,0,0,1-.86-.7,2,2,0,0,1-.317-1.16h1.394a1.007,1.007,0,0,0,.139.525.886.886,0,0,0,.37.337,1.231,1.231,0,0,0,.549.118,1.1,1.1,0,0,0,.571-.139.883.883,0,0,0,.357-.409,1.657,1.657,0,0,0,.126-.668Z" fill="#111"/>
  <path id="Path_17" data-name="Path 17" d="M120.744,20.436a.994.994,0,0,0-.443-.748,1.757,1.757,0,0,0-1.015-.269,1.989,1.989,0,0,0-.751.128,1.13,1.13,0,0,0-.482.349.846.846,0,0,0-.17.5.724.724,0,0,0,.113.407.922.922,0,0,0,.3.292,2.067,2.067,0,0,0,.426.2c.158.054.315.1.473.136l.726.176a5.106,5.106,0,0,1,.845.269,3.01,3.01,0,0,1,.73.426,1.92,1.92,0,0,1,.511.62,1.829,1.829,0,0,1,.189.852,1.987,1.987,0,0,1-.347,1.162,2.28,2.28,0,0,1-1,.781,4.03,4.03,0,0,1-1.585.281,4.1,4.1,0,0,1-1.565-.273,2.307,2.307,0,0,1-1.037-.792,2.276,2.276,0,0,1-.4-1.269h1.379a1.141,1.141,0,0,0,.249.653,1.346,1.346,0,0,0,.573.389,2.332,2.332,0,0,0,.792.128,2.24,2.24,0,0,0,.8-.134,1.259,1.259,0,0,0,.541-.374.867.867,0,0,0,.2-.562.716.716,0,0,0-.176-.488,1.356,1.356,0,0,0-.486-.323,5.013,5.013,0,0,0-.728-.233l-.881-.219a3.555,3.555,0,0,1-1.509-.726,1.63,1.63,0,0,1-.554-1.294,1.89,1.89,0,0,1,.373-1.164,2.417,2.417,0,0,1,1.013-.775,3.632,3.632,0,0,1,1.456-.277,3.5,3.5,0,0,1,1.445.277,2.349,2.349,0,0,1,.977.767,1.921,1.921,0,0,1,.367,1.124Z" fill="#111"/>
  <path id="Path_18" data-name="Path 18" d="M85.124.011h22.3V4.128H98.58V25.785H94.156V4.128H85.124Z" fill="#111"/>
  <path id="Path_19" data-name="Path 19" d="M48.442.011V4.128H30.564V10.75H44.942v4.117H30.564v6.8H48.442v4.117H26.14V4.128h0V.011Z" fill="#111"/>
  <path id="Path_20" data-name="Path 20" d="M59.579.021h-5.79L74.526,25.8h5.806L69.963,12.918,80.316.041,74.526.05,67.064,9.318Z" fill="#111"/>
  <path id="Path_21" data-name="Path 21" d="M65.52,18.432l-2.9-3.6L53.773,25.816h5.806Z" fill="#111"/>
  <path id="Path_22" data-name="Path 22" d="M26.295,25.785,5.53,0H0V25.774H4.424V5.509L20.737,25.785Z" fill="#111" fill-rule="evenodd"/>
</svg>
